<?xml version="1.0" encoding="UTF-8" standalone="no"?>
<!-- Created with Inkscape (http://www.inkscape.org/) -->

<svg
   width="577.87012"
   height="149.81201"
   viewBox="0 0 152.8948 39.637761"
   version="1.1"
   id="svg1"
   inkscape:version="1.3 (0e150ed6c4, 2023-07-21)"
   sodipodi:docname="maisoft.svg"
   xmlns:inkscape="http://www.inkscape.org/namespaces/inkscape"
   xmlns:sodipodi="http://sodipodi.sourceforge.net/DTD/sodipodi-0.dtd"
   xmlns="http://www.w3.org/2000/svg"
   xmlns:svg="http://www.w3.org/2000/svg">
  <sodipodi:namedview
     id="namedview1"
     pagecolor="#ffffff"
     bordercolor="#000000"
     borderopacity="0.25"
     inkscape:showpageshadow="false"
     inkscape:pageopacity="0.0"
     inkscape:pagecheckerboard="0"
     inkscape:deskcolor="#d1d1d1"
     inkscape:document-units="px"
     borderlayer="false"
     showborder="false"
     inkscape:zoom="1.1182344"
     inkscape:cx="284.37687"
     inkscape:cy="619.27982"
     inkscape:window-width="1920"
     inkscape:window-height="1000"
     inkscape:window-x="0"
     inkscape:window-y="0"
     inkscape:window-maximized="1"
     inkscape:current-layer="g58"
     showgrid="false" />
  <defs
     id="defs1" />
  <g
     inkscape:label="Layer 1"
     inkscape:groupmode="layer"
     id="layer1"
     transform="translate(-24.281689,-163.70293)">
    <g
       id="g58"
       inkscape:export-filename="g58.svg"
       inkscape:export-xdpi="96"
       inkscape:export-ydpi="96">
      <rect
         style="fill:#549f3e;fill-opacity:1;stroke:none;stroke-width:0.385438"
         id="rect57"
         width="37.041668"
         height="1.5914654"
         x="32.506424"
         y="188.43474"
         rx="1.0328732"
         ry="0.57534099"
         transform="translate(-8.2247342,12.054465)" />
      <text
         xml:space="preserve"
         style="font-style:normal;font-variant:normal;font-weight:normal;font-stretch:normal;font-size:6.18669px;font-family:Cantarell;-inkscape-font-specification:'Cantarell, @wght=503';font-variant-ligatures:normal;font-variant-caps:normal;font-variant-numeric:normal;font-variant-east-asian:normal;font-variation-settings:'wght' 503;fill:#549f3e;fill-opacity:1;stroke:none;stroke-width:0.164472"
         x="68.821465"
         y="205.16371"
         id="text57"
         transform="matrix(1.0728717,0,0,0.93207788,-8.2247342,12.054465)"><tspan
           sodipodi:role="line"
           id="tspan57"
           style="font-style:normal;font-variant:normal;font-weight:normal;font-stretch:normal;font-size:6.18669px;font-family:Cantarell;-inkscape-font-specification:'Cantarell, @wght=503';font-variant-ligatures:normal;font-variant-caps:normal;font-variant-numeric:normal;font-variant-east-asian:normal;font-variation-settings:'wght' 503;fill:#549f3e;fill-opacity:1;stroke-width:0.164472"
           x="68.821465"
           y="205.16371">MODERNE SOFTWARE</tspan></text>
      <rect
         style="fill:#549f3e;fill-opacity:1;stroke:none;stroke-width:0.385438"
         id="rect58"
         width="37.041668"
         height="1.5914654"
         x="148.35957"
         y="188.43474"
         rx="1.0328732"
         ry="0.57534099"
         transform="translate(-8.2247342,12.054465)" />
      <g
         id="g57"
         transform="translate(-1.7923675)">
        <g
           id="g26"
           transform="matrix(0.84580167,0,0,0.84580167,4.6269505,50.896867)"
           style="fill:#549f3e;fill-opacity:1">
          <text
             xml:space="preserve"
             style="font-style:normal;font-variant:normal;font-weight:bold;font-stretch:normal;font-size:40.6225px;font-family:Hack;-inkscape-font-specification:'Hack, Bold';font-variant-ligatures:normal;font-variant-caps:normal;font-variant-numeric:normal;font-variant-east-asian:normal;fill:#549f3e;fill-opacity:1;stroke:none;stroke-width:0.972036"
             x="126.64804"
             y="173.79619"
             id="text22"
             transform="scale(1.0439704,0.95788157)"><tspan
               sodipodi:role="line"
               id="tspan22"
               style="font-style:normal;font-variant:normal;font-weight:bold;font-stretch:normal;font-size:40.6225px;font-family:Hack;-inkscape-font-specification:'Hack, Bold';font-variant-ligatures:normal;font-variant-caps:normal;font-variant-numeric:normal;font-variant-east-asian:normal;fill:#549f3e;fill-opacity:1;stroke-width:0.972036"
               x="126.64804"
               y="173.79619">o</tspan></text>
          <path
             d="m 160.85477,165.25505 c 0,0.95508 1.69732,1.47458 2.72007,1.42686 1.55754,-0.0727 2.60825,-0.50213 2.61869,-1.42686 0.0959,-8.49264 0.10138,-23.42973 0.10138,-23.42973 0.009,-2.29987 1.28264,-3.58253 3.58253,-3.58253 1.10572,0 1.66835,0.0833 2.77898,0.27835 1.00015,0.17563 1.55888,-0.71633 1.79893,-1.44763 0.2605,-0.79354 0.007,-2.08309 -0.6413,-2.42215 -1.42806,-0.74743 -2.56551,-1.09682 -4.37889,-1.09682 -5.13054,0 -8.58039,3.49407 -8.58039,8.7573 0,0 0,15.77831 0,22.94321 z m -2.72715,-15.48608 c 4.69703,-0.0163 8.77285,-0.39178 13.75596,-0.39178 0.0879,0 1.26066,-0.14012 1.39305,-2.06648 0.0959,-1.39492 -0.75443,-2.124 -1.39305,-2.124 -4.98311,0 -9.46705,-0.1487 -13.75596,0 -0.7373,0.0256 -1.1875,1.30919 -1.21215,2.124 -0.0276,0.9132 0.3898,2.46111 1.21215,2.45826 z"
             id="path22"
             style="font-size:44.2288px;font-family:Cantarell;-inkscape-font-specification:'Cantarell, @wght=700';font-variation-settings:'wght' 700;fill:#549f3e;fill-opacity:1;stroke-width:1.05833"
             aria-label="f"
             sodipodi:nodetypes="ssssssasssssssssas" />
          <path
             d="m 121.01362,166.88769 c -0.75893,0 -1.49888,-0.0398 -2.21986,-0.11942 -0.72098,-0.0796 -1.44196,-0.2123 -2.16293,-0.39807 -1.46726,-0.35825 -2.16826,-0.78858 -3.46676,-1.41982 -0.92765,-0.45094 -0.99025,-2.16981 -0.63144,-3.18773 0.28518,-0.80903 1.23406,-1.89439 1.95244,-1.58155 1.57656,0.68656 1.05574,0.5073 2.39241,1.03422 1.41666,0.54401 2.78273,0.81602 4.0982,0.81602 1.39136,0 2.47283,-0.33172 3.2444,-0.99516 0.75893,-0.65016 1.13839,-1.5657 1.13839,-2.74661 0,-0.91555 -0.25297,-1.6984 -0.75892,-2.34857 -0.26563,-0.34498 -0.58817,-0.64352 -0.96763,-0.89563 -0.36682,-0.26538 -0.77791,-0.49095 -1.23326,-0.6767 l -2.7511,-1.09467 c -1.45461,-0.58383 -2.64992,-1.16764 -3.58593,-1.75148 -0.93601,-0.59708 -1.65066,-1.20081 -2.14396,-1.81118 -0.99925,-1.20744 -1.49888,-2.87267 -1.49888,-4.99567 0,-2.70681 0.82217,-4.82316 2.46651,-6.34907 1.65699,-1.53916 3.90847,-2.30875 6.75444,-2.30875 1.40401,0 2.71315,0.14596 3.92744,0.43787 1.22693,0.29191 2.12297,0.74194 3.85154,1.49853 0.87976,0.38505 1.92454,1.27742 1.21059,3.18864 -0.54921,1.47022 -1.7399,1.53893 -2.41187,1.2932 -2.98259,-1.09073 -3.66217,-1.5619 -6.14132,-1.5619 -1.36607,0 -2.39694,0.28528 -3.09262,0.85583 -0.72098,0.57056 -1.08147,1.37996 -1.08147,2.42818 0,0.83592 0.26562,1.51928 0.79687,2.05002 0.25297,0.26536 0.62611,0.53738 1.11941,0.81603 0.50595,0.27863 1.22693,0.60371 2.16294,0.97524 l 2.40959,0.95534 c 2.28943,0.88901 3.96539,2.04339 5.02788,3.46314 1.07515,1.44629 1.61272,3.31054 1.61272,5.59275 0,2.93239 -0.84747,5.13499 -2.5424,6.60782 -1.69493,1.4861 -4.18674,2.22915 -7.47542,2.22915 z"
             id="path24"
             style="font-weight:bold;font-size:38.857px;font-family:Hack;-inkscape-font-specification:'Hack, Bold';fill:#549f3e;fill-opacity:1;stroke-width:1.08396"
             aria-label="S"
             sodipodi:nodetypes="sscsascscsccccccscscsssscscccccscs" />
          <path
             d="m 190.50529,167.1891 c -2.08704,0 -3.72506,-0.2257 -4.91404,-0.67711 -1.18898,-0.4514 -2.03013,-1.22808 -2.52343,-2.33003 -0.48065,-1.10195 -0.72098,-2.61548 -0.72098,-4.54058 v -10.3557 c 0,0 -2.77366,-0.0781 -4.42411,-0.15705 -0.74722,-0.0358 -0.9953,-1.31282 -1.00222,-2.08345 -0.007,-0.80063 0.22003,-2.15796 1.00222,-2.18294 1.50724,-0.0482 4.42411,-0.0574 4.42411,-0.0574 0,0 0.11084,-4.90855 0.0971,-7.22655 -0.006,-0.9754 1.66208,-1.50717 2.63749,-1.51023 0.98857,-0.003 2.68895,0.52173 2.70185,1.51023 0.0276,2.11454 0.12267,7.22655 0.12267,7.22655 h 6.09993 c 0.66717,0 1.16679,1.18382 1.16679,2.12476 0,0.82058 -0.42226,2.2751 -1.16679,2.27895 -2.17415,0.0113 -6.09993,0.0771 -6.09993,0.0771 v 10.63451 c 0,0.98247 0.23401,1.69276 0.70201,2.13089 0.48065,0.43812 1.2459,0.65718 2.29575,0.65718 0,0 1.93764,-0.0537 3.01795,0 0.70863,0.0352 1.22084,1.2445 1.25101,2.04226 0.0345,0.91291 -0.39969,2.43853 -1.25101,2.43853 -1.39992,0 -3.41639,0 -3.41639,0 z"
             id="path25"
             style="font-weight:bold;font-size:39.8096px;font-family:Hack;-inkscape-font-specification:'Hack, Bold';fill:#549f3e;fill-opacity:1;stroke-width:1.08428"
             aria-label="t"
             sodipodi:nodetypes="sscscsascssscssscscssass" />
        </g>
        <g
           id="g56"
           transform="matrix(0.84580167,0,0,0.84580167,2.6922606,50.566516)">
          <g
             id="g52">
            <path
               id="path51"
               style="fill:#0187bb;fill-opacity:1;stroke:none;stroke-width:1.00969"
               d="m 37.395165,133.76397 c -0.423718,0.0147 -0.844455,0.12846 -1.237981,0.3514 -1.574101,0.89179 -2.102969,3.18298 -1.185773,5.13716 l 11.763651,25.06358 c 0.650921,1.38685 1.850007,2.21622 3.054032,2.26446 0.04264,0.002 0.08524,0.003 0.12794,0.003 0.04254,-2.7e-4 0.08498,-8.3e-4 0.127467,-0.003 1.204025,-0.0482 2.40311,-0.87761 3.054034,-2.26447 l 11.763652,-25.06357 c 0.917191,-1.95418 0.388329,-4.24537 -1.185774,-5.13716 -1.574102,-0.89178 -3.5799,-0.0365 -4.497091,1.91772 l -9.262288,19.73471 -9.262759,-19.73472 c -0.687897,-1.46563 -1.987961,-2.31318 -3.25911,-2.26911 z" />
            <rect
               style="fill:#0187bb;fill-opacity:1;stroke:none;stroke-width:1.05833"
               id="rect51"
               width="5.7605972"
               height="14.267669"
               x="43.597851"
               y="149.52635"
               rx="3.96875"
               ry="3.96875"
               transform="rotate(3.9042911)" />
            <rect
               style="fill:#549f3e;fill-opacity:1;stroke:none;stroke-width:1.05839"
               id="rect52"
               width="5.777657"
               height="14.227105"
               x="49.216183"
               y="157.50838"
               rx="3.9805031"
               ry="3.9574666"
               transform="matrix(0.99593506,-0.09007415,0.07529596,0.99716123,0,0)" />
          </g>
          <g
             id="g53"
             transform="translate(-6.8988834,0.6438255)">
            <rect
               style="fill:#0187bb;fill-opacity:1;stroke:none;stroke-width:1.35912"
               id="rect53"
               width="5.1919794"
               height="22.331392"
               x="104.30048"
               y="143.63594"
               rx="2.5668693"
               ry="2.5400045" />
            <circle
               style="fill:none;fill-opacity:1;stroke:#549f3e;stroke-width:1.25128;stroke-linecap:round;stroke-linejoin:round;stroke-dasharray:2.50256;stroke-dashoffset:0;stroke-opacity:1;paint-order:normal"
               id="circle53"
               cx="106.89647"
               cy="137.65002"
               r="2.6458333" />
          </g>
          <g
             id="g54"
             transform="translate(-3.7538352)">
            <circle
               style="fill:none;fill-opacity:1;stroke:#549f3e;stroke-width:1.25128;stroke-linecap:round;stroke-linejoin:round;stroke-dasharray:2.50256;stroke-dashoffset:0;stroke-opacity:1;paint-order:normal"
               id="circle54"
               cx="85.799316"
               cy="159.52881"
               r="2.6458333" />
            <path
               id="path54"
               style="fill:#0187bb;fill-opacity:1;stroke:none;stroke-width:0.796729"
               d="m 96.693938,166.60998 c 0.366609,-0.0106 0.730648,-0.0925 1.071145,-0.25288 1.361972,-0.64176 1.819569,-2.29057 1.025975,-3.69686 L 88.612721,144.6237 c -0.563199,-0.99802 -1.600695,-1.59487 -2.642456,-1.62958 -0.03686,-0.001 -0.07372,-0.002 -0.110698,-0.002 -0.03677,2e-4 -0.07354,6e-4 -0.110292,0.002 -1.04177,0.0347 -2.079257,0.63156 -2.642465,1.62958 l -10.17833,18.03654 c -0.793586,1.40629 -0.335997,3.0551 1.025979,3.69686 1.361968,0.64175 3.097457,0.0263 3.891042,-1.38005 l 8.014066,-14.20172 8.014472,14.20173 c 0.595187,1.05471 1.720054,1.66463 2.819899,1.63292 z" />
          </g>
          <g
             id="g55"
             transform="translate(1.2344261,0.6438255)">
            <rect
               style="fill:#0187bb;fill-opacity:1;stroke:none;stroke-width:1.35912"
               id="rect54"
               width="5.1919794"
               height="22.331392"
               x="104.30048"
               y="143.63594"
               rx="2.5668693"
               ry="2.5400045" />
            <circle
               style="fill:none;fill-opacity:1;stroke:#549f3e;stroke-width:1.25128;stroke-linecap:round;stroke-linejoin:round;stroke-dasharray:2.50256;stroke-dashoffset:0;stroke-opacity:1;paint-order:normal"
               id="circle55"
               cx="106.89647"
               cy="137.65002"
               r="2.6458333" />
          </g>
        </g>
      </g>
    </g>
  </g>
</svg>
