<?xml version="1.0" encoding="UTF-8" standalone="no"?>
<!-- Created with Inkscape (http://www.inkscape.org/) -->

<svg
   width="577.87012"
   height="149.81201"
   viewBox="0 0 152.8948 39.637761"
   version="1.1"
   id="svg1"
   xmlns="http://www.w3.org/2000/svg"
   xmlns:svg="http://www.w3.org/2000/svg">
  <defs
     id="defs1" />
   <style type="text/css">
    @import url('https://fonts.googleapis.com/css2?family=Nunito:ital@1&display=swap');
  </style>
  <g
     id="layer1"
     transform="translate(-24.281689,-163.70293)">
    <g
       id="g58">
      <rect
         style="fill:#1fb05c;fill-opacity:1;stroke:none;stroke-width:0.265645"
         id="rect57"
         width="21.166666"
         height="1.3229166"
         x="44.537193"
         y="199.9772"
         rx="0.59021324"
         ry="0.47825617" />
      <text
         xml:space="preserve"
         style="font-style:normal;font-variant:normal;font-weight:normal;font-stretch:normal;font-size:5.64444px;font-family:Nunito;-inkscape-font-specification:'Nunito, Normal ';font-variant-ligatures:normal;font-variant-caps:normal;font-variant-numeric:normal;font-variant-east-asian:normal;fill:#ffffff;fill-opacity:1;stroke:none;stroke-width:0.164472"
         x="64.114716"
         y="217.52887"
         id="text57"
         transform="scale(1.0728717,0.93207789)"><tspan
           id="tspan57"
           style="font-style:normal;font-variant:normal;font-weight:normal;font-stretch:normal;font-size:5.64444px;font-family:Nunito;-inkscape-font-specification:'Nunito, Normal ';font-variant-ligatures:normal;font-variant-caps:normal;font-variant-numeric:normal;font-variant-east-asian:normal;fill:#ffffff;fill-opacity:1;stroke-width:0.164472"
           x="64.114716"
           y="217.52887">MODERN SOFTWARE</tspan></text>
      <rect
         style="fill:#268cfe;fill-opacity:1;stroke:none;stroke-width:0.265646"
         id="rect58"
         width="21.166666"
         height="1.3229166"
         x="134.31409"
         y="199.96004"
         rx="0.59021318"
         ry="0.4782562" />
      <g
         id="g57"
         transform="translate(-1.7923675,-1.5875)">
        <g
           id="g26"
           transform="matrix(0.84580167,0,0,0.84580167,4.6269505,50.896867)"
           style="fill:#ffffff;fill-opacity:1" />
        <g
           id="g56"
           transform="matrix(0.84580167,0,0,0.84580167,35.347877,55.54915)">
          <g
             id="g52"
             transform="translate(-39.714951,0.12720915)">
            <path
               id="path51"
               style="fill:#268cfe;fill-opacity:1;stroke:none;stroke-width:1.00969"
               d="m 37.395165,133.76397 c -0.423718,0.0147 -0.844455,0.12846 -1.237981,0.3514 -1.574101,0.89179 -2.102969,3.18298 -1.185773,5.13716 l 11.763651,25.06358 c 0.650921,1.38685 1.850007,2.21622 3.054032,2.26446 0.04264,0.002 0.08524,0.003 0.12794,0.003 0.04254,-2.7e-4 0.08498,-8.3e-4 0.127467,-0.003 1.204025,-0.0482 2.40311,-0.87761 3.054034,-2.26447 l 11.763652,-25.06357 c 0.917191,-1.95418 0.388329,-4.24537 -1.185774,-5.13716 -1.574102,-0.89178 -3.5799,-0.0365 -4.497091,1.91772 l -9.262288,19.73471 -9.262759,-19.73472 c -0.687897,-1.46563 -1.987961,-2.31318 -3.25911,-2.26911 z" />
            <rect
               style="fill:#268cfe;fill-opacity:1;stroke:none;stroke-width:1.05833"
               id="rect51"
               width="5.7605972"
               height="14.267669"
               x="43.597851"
               y="149.52635"
               rx="3.96875"
               ry="3.96875"
               transform="rotate(3.9042911)" />
            <rect
               style="fill:#1fb05c;fill-opacity:1;stroke:none;stroke-width:1.05839"
               id="rect52"
               width="5.777657"
               height="14.227105"
               x="49.216183"
               y="157.50838"
               rx="3.9805031"
               ry="3.9574666"
               transform="matrix(0.99593506,-0.09007415,0.07529596,0.99716123,0,0)" />
          </g>
          <g
             id="g55"
             transform="translate(1.2344261,0.6438255)" />
          <text
             xml:space="preserve"
             style="font-style:normal;font-variant:normal;font-weight:normal;font-stretch:normal;font-size:45.391px;font-family:Nunito;-inkscape-font-specification:'Nunito, Normal';font-variant-ligatures:normal;font-variant-caps:normal;font-variant-numeric:normal;font-variant-east-asian:normal;fill:#ffffff;fill-opacity:1;stroke:none;stroke-width:1.2178;stroke-dasharray:2.4356;stroke-dashoffset:0;stroke-opacity:1"
             x="28.98967"
             y="162.43834"
             id="text5"
             transform="scale(0.97324338,1.0274922)"><tspan
               id="tspan5"
               style="fill:#ffffff;fill-opacity:1;stroke-width:1.2178"
               x="28.98967"
               y="162.43834">aiSYST</tspan></text>
        </g>
      </g>
    </g>
  </g>
</svg>
